<?xml version="1.0" standalone="no"?>
<!DOCTYPE svg PUBLIC "-//W3C//DTD SVG 20010904//EN"
 "http://www.w3.org/TR/2001/REC-SVG-20010904/DTD/svg10.dtd">
<svg version="1.0" xmlns="http://www.w3.org/2000/svg"
 width="225.000000pt" height="225.000000pt" viewBox="0 0 225.000000 225.000000"
 preserveAspectRatio="xMidYMid meet">

<g transform="translate(0.000000,225.000000) scale(0.100000,-0.100000)"
fill="#000000" stroke="none">
<path d="M940 2034 c-367 -78 -650 -359 -724 -716 -20 -99 -21 -284 -1 -379
28 -132 95 -280 168 -371 17 -22 26 -41 22 -49 -5 -7 -4 -10 2 -6 13 8 36 -17
25 -28 -4 -5 -2 -5 4 -2 6 4 20 -3 30 -14 11 -12 54 -47 96 -79 42 -32 75 -61
72 -64 -2 -3 -1 -4 2 -2 3 3 31 -8 63 -24 142 -71 307 -105 473 -98 135 7 241
34 352 89 255 127 421 334 498 617 31 114 30 325 -1 442 -112 422 -474 701
-906 699 -60 0 -139 -7 -175 -15z m60 -191 c0 -4 -10 -16 -23 -28 -12 -11 -18
-17 -13 -12 6 4 14 7 18 7 15 0 -14 -44 -56 -85 -41 -40 -56 -64 -75 -117 -8
-20 -15 -26 -28 -22 -17 5 -17 5 -1 -6 17 -10 17 -13 3 -40 -9 -17 -22 -30
-31 -30 -8 0 -12 -4 -9 -10 3 -5 -6 -22 -20 -37 -15 -16 -33 -42 -41 -60 -7
-17 -20 -38 -29 -46 -11 -11 -12 -22 -6 -39 6 -14 10 -17 10 -7 1 17 51 69 51
52 0 -6 -7 -13 -15 -17 -8 -3 -20 -17 -25 -31 -6 -15 -14 -23 -20 -20 -6 4
-10 -6 -10 -24 0 -16 -3 -38 -6 -48 -5 -17 -5 -17 9 0 21 25 30 21 12 -7 -14
-21 -14 -25 4 -47 11 -13 20 -21 21 -17 0 5 28 -12 61 -37 34 -25 73 -48 88
-51 14 -4 33 -12 41 -18 27 -21 70 -39 76 -33 4 4 -4 10 -17 15 -53 20 -51 22
26 17 44 -3 105 -2 135 2 47 7 55 11 58 31 3 23 4 23 18 5 14 -17 15 -16 9 7
-6 24 -5 24 9 6 16 -19 16 -19 16 3 0 13 4 19 10 16 6 -4 8 -15 5 -25 -16 -49
101 27 134 88 11 20 -10 62 -31 62 -6 0 -3 -10 8 -21 13 -15 14 -20 5 -17 -8
2 -21 15 -30 28 -11 17 -12 22 -2 16 10 -7 12 -3 6 15 l-8 24 20 -24 c19 -23
21 -24 44 -8 13 10 18 17 11 17 -6 0 -12 7 -12 15 0 15 -60 82 -60 68 -1 -8
-30 55 -30 64 0 3 7 0 15 -7 12 -10 15 -9 15 7 0 14 -11 23 -36 31 -60 18
-106 -9 -160 -93 -29 -47 -51 -58 -80 -42 -17 10 -18 9 -5 -7 9 -10 23 -15 34
-12 18 4 18 4 1 -15 -9 -10 -12 -19 -6 -19 6 0 14 5 18 11 5 8 9 7 15 -4 10
-18 53 -10 95 18 25 16 114 21 114 6 0 -33 -16 -73 -32 -82 -18 -10 -19 -9 -4
20 23 44 20 46 -19 7 -35 -35 -36 -35 -86 -26 -40 8 -62 7 -96 -5 -24 -8 -52
-15 -62 -15 -26 0 -53 33 -45 55 5 13 4 16 -5 10 -7 -4 -11 -19 -9 -35 5 -34
-10 -40 -74 -33 -75 8 -87 13 -124 50 -32 32 -36 33 -30 12 6 -19 5 -21 -4 -7
-7 12 -7 25 2 45 6 15 13 37 14 48 1 11 5 33 9 50 l6 30 -27 -25 -27 -25 13
25 c18 34 72 96 82 93 4 -2 7 0 6 5 -4 12 24 72 34 72 5 0 6 5 3 10 -11 19 6
32 23 18 16 -12 16 -11 1 7 -17 21 -15 50 3 39 7 -4 8 -2 4 4 -12 20 4 34 22
20 15 -11 15 -11 4 3 -10 13 -10 18 1 28 8 6 18 7 22 3 5 -4 5 -2 2 4 -3 6 7
23 23 39 15 15 34 47 41 71 13 43 14 44 49 38 91 -15 138 -36 220 -97 47 -35
91 -71 98 -79 7 -9 20 -14 30 -12 41 11 122 -89 122 -149 0 -14 9 -46 21 -72
20 -45 20 -49 4 -91 -9 -24 -16 -54 -15 -66 3 -35 1 -48 -9 -48 -15 0 -20 63
-8 107 9 35 8 45 -5 60 -17 20 -32 54 -29 66 1 5 -3 6 -8 3 -5 -3 -14 0 -20 8
-9 11 -9 15 1 20 7 3 4 4 -7 3 -14 -1 -19 3 -17 16 2 9 -1 17 -5 16 -14 -3
-83 31 -83 41 0 5 -7 7 -15 4 -10 -4 -19 7 -31 35 -9 23 -19 39 -22 37 -3 -3
-11 -1 -19 5 -9 8 -13 8 -13 1 0 -6 5 -14 10 -17 15 -9 82 -145 71 -145 -13 0
-32 26 -24 34 4 4 -1 4 -11 0 -18 -7 -17 -9 7 -29 15 -11 27 -27 28 -35 0 -9
3 -7 8 5 7 18 9 18 23 -10 8 -17 13 -35 11 -41 -2 -7 12 -42 32 -79 32 -61 34
-70 22 -89 -15 -23 -17 -90 -3 -103 5 -4 6 0 3 10 -4 9 -2 17 3 17 5 0 5 13 0
30 -13 44 8 48 26 5 13 -33 13 -39 0 -60 -8 -13 -29 -29 -46 -36 -16 -8 -30
-18 -30 -22 0 -5 5 -5 12 -1 7 4 8 3 4 -5 -22 -36 -176 -85 -214 -68 -18 8
-26 6 -43 -11 -37 -40 -189 -23 -303 35 -28 14 -81 55 -119 91 -64 62 -67 68
-64 105 2 21 10 43 18 48 8 5 10 9 5 9 -5 0 -3 7 4 15 18 22 5 31 -15 11 -9
-9 -13 -16 -8 -16 4 0 3 -4 -2 -8 -6 -4 -16 -18 -22 -32 -11 -23 -12 -23 -12
-4 -1 12 10 37 23 57 13 19 21 39 18 43 -4 4 -2 4 5 0 7 -4 17 3 24 16 11 21
11 22 -4 9 -10 -8 -17 -9 -17 -3 0 6 16 24 36 39 37 29 73 95 75 135 0 22 1
22 9 3 5 -11 9 -15 10 -10 0 6 4 27 9 47 5 22 5 36 0 32 -5 -3 -10 -15 -10
-27 -1 -18 -2 -19 -6 -4 -7 25 20 62 68 94 23 15 38 32 35 40 -3 7 8 28 24 47
17 18 30 38 30 43 0 15 23 33 42 33 10 0 18 -3 18 -7z m886 -230 c-3 -7 -2
-13 2 -13 9 -1 43 -48 46 -63 1 -7 8 -23 16 -37 23 -40 39 -91 33 -106 -7 -19
-23 -18 -23 2 0 8 5 12 10 9 6 -3 10 -2 10 3 0 6 -7 12 -15 16 -8 3 -14 9 -13
13 1 4 -16 42 -37 83 -22 41 -40 84 -40 95 0 11 -6 19 -13 17 -8 -1 -11 2 -7
8 9 15 37 -9 31 -27z m-483 -104 c36 -30 54 -65 20 -38 -16 13 -17 12 -4 -3 7
-10 17 -16 21 -13 4 2 16 -5 26 -17 19 -20 19 -21 -1 -15 -11 3 -33 9 -50 13
-41 9 -52 19 -79 75 l-24 47 27 -9 c15 -5 44 -23 64 -40z m80 -119 c3 -11 3
-20 1 -20 -2 0 -8 9 -14 20 -6 11 -7 20 -2 20 6 0 12 -9 15 -20z m520 -31 c3
-11 3 -32 1 -45 -3 -16 -1 -23 6 -19 23 14 15 -278 -9 -335 -9 -20 -9 -15 -4
25 11 78 6 254 -10 323 -7 34 -11 64 -9 67 11 10 20 4 25 -16z m-516 -31 c-3
-7 -5 -2 -5 12 0 14 2 19 5 13 2 -7 2 -19 0 -25z m-177 4 c0 -4 -9 -8 -20 -8
-11 0 -20 4 -20 8 0 4 9 8 20 8 11 0 20 -4 20 -8z m46 -19 c-6 -6 -36 9 -36
18 0 5 9 4 20 -3 10 -7 18 -14 16 -15z m24 -17 c0 -3 -4 -8 -10 -11 -5 -3 -10
-1 -10 4 0 6 5 11 10 11 6 0 10 -2 10 -4z m10 -26 c0 -5 -5 -10 -11 -10 -5 0
-7 5 -4 10 3 6 8 10 11 10 2 0 4 -4 4 -10z m113 -30 c5 -20 37 -29 37 -10 0 6
7 10 15 10 22 0 18 -17 -6 -30 -12 -7 -18 -18 -15 -26 5 -12 1 -14 -17 -9 -26
8 -47 32 -47 55 0 33 25 41 33 10z m-728 -19 c3 -5 1 -12 -5 -16 -5 -3 -10 1
-10 9 0 18 6 21 15 7z m-64 -14 c-6 -8 -8 -17 -4 -20 3 -4 12 1 20 11 11 15
12 13 1 -11 -11 -26 -13 -27 -25 -11 -9 13 -10 21 -2 31 6 7 14 13 16 13 3 0
0 -6 -6 -13z m436 -3 c-3 -3 -12 -4 -19 -1 -8 3 -5 6 6 6 11 1 17 -2 13 -5z
m-347 -8 c0 -3 -4 -8 -10 -11 -5 -3 -10 -1 -10 4 0 6 5 11 10 11 6 0 10 -2 10
-4z m330 -22 c0 -20 -18 -17 -23 4 -4 13 -5 11 -6 -5 0 -13 -5 -23 -11 -23
-14 0 -12 38 3 43 18 6 37 -3 37 -19z m53 11 c4 -8 2 -17 -3 -20 -6 -4 -10 2
-11 12 0 16 -1 16 -8 -1 -6 -17 -8 -17 -14 -3 -5 14 4 24 24 26 4 1 9 -6 12
-14z m-353 -5 c0 -5 -4 -10 -10 -10 -5 0 -10 5 -10 10 0 6 5 10 10 10 6 0 10
-4 10 -10z m190 -22 c0 -17 -3 -18 -15 -8 -8 7 -15 19 -15 26 0 8 6 11 15 8 8
-4 15 -15 15 -26z m200 16 c0 -8 -5 -12 -10 -9 -6 4 -8 11 -5 16 9 14 15 11
15 -7z m50 0 c0 -8 -4 -12 -10 -9 -5 3 -10 10 -10 16 0 5 5 9 10 9 6 0 10 -7
10 -16z m40 7 c0 -6 -4 -13 -10 -16 -5 -3 -10 1 -10 9 0 9 5 16 10 16 6 0 10
-4 10 -9z m-450 -5 c0 -3 -4 -8 -10 -11 -5 -3 -10 -1 -10 4 0 6 5 11 10 11 6
0 10 -2 10 -4z m30 -5 c0 -6 -4 -13 -10 -16 -5 -3 -10 1 -10 9 0 9 5 16 10 16
6 0 10 -4 10 -9z m30 -19 c0 -15 -2 -15 -10 -2 -13 20 -13 33 0 25 6 -3 10
-14 10 -23z m60 6 c0 -16 -3 -19 -11 -11 -6 6 -8 16 -5 22 11 17 16 13 16 -11z
m57 0 c-3 -8 -6 -5 -6 6 -1 11 2 17 5 13 3 -3 4 -12 1 -19z m33 7 c0 -8 -4
-15 -10 -15 -5 0 -10 7 -10 15 0 8 5 15 10 15 6 0 10 -7 10 -15z m295 5 c3 -5
2 -10 -4 -10 -5 0 -13 5 -16 10 -3 6 -2 10 4 10 5 0 13 -4 16 -10z m-593 -22
c-7 -7 -12 -8 -12 -2 0 14 12 26 19 19 2 -3 -1 -11 -7 -17z m178 6 c0 -8 -4
-12 -10 -9 -5 3 -10 10 -10 16 0 5 5 9 10 9 6 0 10 -7 10 -16z m398 -12 c6
-18 -15 -14 -22 4 -4 10 -1 14 6 12 6 -2 14 -10 16 -16z m-552 -19 c-10 -10
-19 5 -10 18 6 11 8 11 12 0 2 -7 1 -15 -2 -18z m374 -3 c6 -11 8 -20 6 -20
-3 0 -10 9 -16 20 -6 11 -8 20 -6 20 3 0 10 -9 16 -20z m150 -1 c0 -5 -4 -9
-10 -9 -5 0 -10 7 -10 16 0 8 5 12 10 9 6 -3 10 -10 10 -16z m-480 2 c0 -12
-20 -25 -27 -18 -7 7 6 27 18 27 5 0 9 -4 9 -9z m450 -12 c0 -5 -4 -9 -10 -9
-5 0 -10 7 -10 16 0 8 5 12 10 9 6 -3 10 -10 10 -16z m-424 -26 c-11 -11 -19
6 -11 24 8 17 8 17 12 0 3 -10 2 -21 -1 -24z m748 21 c3 -9 6 -23 6 -32 -1
-14 -2 -14 -12 2 -11 19 -11 19 -24 1 -8 -10 -14 -13 -14 -7 0 7 -5 12 -11 12
-5 0 -8 -4 -5 -9 3 -5 -14 -12 -38 -15 -24 -4 -52 -13 -62 -21 -11 -8 -28 -15
-39 -15 -13 -1 -15 -4 -7 -7 9 -3 -3 -13 -28 -24 -23 -10 -46 -16 -51 -13 -5
3 -11 -1 -14 -8 -3 -8 -21 -13 -45 -13 -22 0 -36 3 -32 6 4 4 66 30 137 58 72
28 150 62 175 75 55 30 56 30 64 10z m-714 -19 c0 -8 -4 -15 -10 -15 -5 0 -10
7 -10 15 0 8 5 15 10 15 6 0 10 -7 10 -15z m30 -7 c0 -16 -3 -19 -11 -11 -6 6
-8 16 -5 22 11 17 16 13 16 -11z m30 -3 c0 -8 -4 -15 -10 -15 -5 0 -10 7 -10
15 0 8 5 15 10 15 6 0 10 -7 10 -15z m100 -17 c0 -5 -4 -8 -10 -8 -5 0 -10 10
-10 23 0 18 2 19 10 7 5 -8 10 -18 10 -22z m54 17 c3 -8 1 -15 -4 -15 -6 0
-10 7 -10 15 0 8 2 15 4 15 2 0 6 -7 10 -15z m36 -6 c0 -5 -4 -9 -10 -9 -5 0
-10 7 -10 16 0 8 5 12 10 9 6 -3 10 -10 10 -16z m25 12 c3 -5 1 -12 -5 -16 -5
-3 -10 1 -10 9 0 18 6 21 15 7z m-185 -11 c0 -5 -5 -10 -11 -10 -5 0 -7 5 -4
10 3 6 8 10 11 10 2 0 4 -4 4 -10z m30 1 c0 -6 -4 -13 -10 -16 -5 -3 -10 1
-10 9 0 9 5 16 10 16 6 0 10 -4 10 -9z m70 -12 c0 -5 -4 -9 -10 -9 -5 0 -10 7
-10 16 0 8 5 12 10 9 6 -3 10 -10 10 -16z m279 -26 c-60 -26 -79 -33 -79 -28
0 9 95 53 104 48 5 -3 -7 -12 -25 -20z m-575 8 c4 -1 5 -9 1 -18 -4 -14 -3
-15 5 -7 9 9 24 6 60 -9 27 -11 47 -23 45 -26 -3 -6 7 -7 111 -13 51 -3 51 -3
35 -25 -9 -11 -18 -21 -21 -20 -12 2 -56 -17 -65 -28 -5 -7 -25 -15 -43 -17
-32 -5 -34 -3 -30 24 3 15 1 28 -2 28 -4 0 -10 -24 -14 -54 -6 -52 -1 -86 13
-86 12 0 151 -135 151 -148 0 -14 0 -14 -60 -17 -152 -8 -291 181 -259 352 10
54 23 72 47 68 9 -2 21 -4 26 -4z m777 -53 c13 -46 15 -54 17 -79 1 -8 8 -23
15 -34 11 -14 16 -15 22 -5 6 9 4 11 -6 5 -8 -5 -10 -4 -6 0 4 5 14 10 23 11
11 2 13 -3 8 -18 -4 -14 -2 -18 5 -14 7 5 9 1 5 -8 -4 -11 0 -16 11 -16 9 0
14 -4 11 -9 -3 -4 7 -28 23 -53 39 -61 46 -86 29 -105 -21 -26 -130 -73 -170
-73 -42 0 -57 14 -31 29 14 8 15 11 3 11 -10 1 -9 4 5 11 18 9 18 9 -4 5 -20
-4 -22 -1 -18 19 2 14 0 22 -4 19 -5 -3 -9 7 -10 23 l-1 28 -7 -25 c-7 -22 -8
-21 -13 16 -5 32 -48 151 -84 230 -7 16 101 68 153 73 7 0 18 -18 24 -41z m29
35 c0 -5 -5 -15 -10 -23 -8 -12 -10 -11 -10 8 0 12 5 22 10 22 6 0 10 -3 10
-7z m-320 -19 c0 -5 -55 -27 -65 -25 -18 3 -1 17 27 22 18 4 34 7 36 8 1 0 2
-1 2 -5z m-76 -39 c30 -35 126 -76 126 -55 0 6 4 10 9 10 8 0 51 -93 51 -110
0 -12 -76 -22 -110 -15 -17 4 -28 11 -25 16 4 5 0 6 -8 4 -37 -15 -106 85
-107 153 0 43 24 42 64 -3z m406 11 c0 -3 -4 -8 -10 -11 -5 -3 -10 -1 -10 4 0
6 5 11 10 11 6 0 10 -2 10 -4z m-482 -31 c-3 -3 -9 2 -12 12 -6 14 -5 15 5 6
7 -7 10 -15 7 -18z m-25 -18 c-3 -5 -9 -3 -14 4 -4 7 -5 17 -2 22 3 5 9 3 14
-4 4 -7 5 -17 2 -22z m281 -9 c-4 -15 -3 -18 6 -13 8 5 11 4 6 -3 -3 -6 -2
-13 4 -17 5 -3 10 -11 10 -17 0 -7 -13 6 -29 28 -20 26 -26 41 -18 46 17 11
28 -2 21 -24z m237 -1 c-10 -9 -11 -8 -5 6 3 10 9 15 12 12 3 -3 0 -11 -7 -18z
m356 -29 c-3 -7 -5 -2 -5 12 0 14 2 19 5 13 2 -7 2 -19 0 -25z m-852 -28 l20
-25 -22 19 c-13 11 -23 24 -23 29 0 6 1 8 3 6 1 -2 11 -15 22 -29z m-207 -51
c11 0 12 -2 4 -6 -15 -6 -42 14 -42 31 0 6 5 3 11 -6 5 -10 18 -18 27 -19z
m352 -26 c33 -6 69 -7 115 -1 30 4 30 -27 0 -40 -63 -29 -152 -4 -189 53 -25
38 -19 49 11 20 15 -14 44 -28 63 -32z m-55 -31 c22 -17 23 -21 10 -32 -21
-18 -11 -24 13 -9 14 9 30 9 60 2 23 -6 46 -7 54 -2 7 5 22 9 33 9 15 0 11 -5
-13 -17 -42 -20 -67 -57 -57 -80 5 -10 8 -21 7 -25 -1 -4 5 -5 13 -2 8 4 15
12 15 19 0 7 7 16 16 19 14 5 15 4 5 -8 -9 -11 -9 -15 1 -19 8 -4 7 -6 -4 -6
-19 -1 -26 -21 -8 -21 6 0 10 -7 10 -15 0 -13 4 -12 22 4 11 11 26 18 31 14 6
-3 7 -1 3 6 -4 6 0 18 8 27 15 14 16 14 16 -5 0 -11 9 -25 20 -31 16 -9 18
-15 10 -30 -5 -10 -10 -27 -9 -37 0 -10 6 -3 13 16 7 19 18 37 25 39 10 3 11
-1 2 -19 l-12 -24 17 23 c9 12 24 22 34 22 10 0 36 7 59 15 l41 14 0 -27 c-1
-30 -28 -97 -29 -71 -1 9 -7 19 -14 22 -15 5 -77 -21 -75 -32 1 -3 -2 -14 -7
-25 -5 -11 -3 -26 4 -37 9 -16 8 -19 -8 -19 -11 0 -25 8 -30 17 -10 17 -10 17
-11 1 0 -22 4 -23 -80 8 -64 24 -69 28 -53 41 17 13 16 13 -4 4 -16 -8 -31 -6
-65 9 -23 11 -51 20 -60 20 -9 0 -20 5 -24 12 -5 7 0 9 14 6 13 -4 20 -2 19 6
-1 6 6 11 15 11 23 0 32 12 11 12 -10 1 -44 -8 -75 -19 -86 -31 -203 -23 -286
18 -34 17 -62 27 -62 22 0 -4 5 -8 10 -8 6 0 10 -5 10 -11 0 -6 -7 -8 -17 -5
-10 4 -14 4 -10 0 8 -8 -26 -33 -86 -65 l-39 -20 -5 20 c-6 22 -18 27 -27 12
-3 -5 1 -12 10 -15 21 -8 11 -19 -21 -23 -19 -3 -25 1 -25 15 0 10 -12 29 -27
43 -53 48 -60 51 -82 39 -18 -9 -22 -6 -36 26 -19 45 -19 44 3 44 11 0 37 -13
58 -28 58 -42 74 -47 35 -13 -19 17 -50 38 -69 47 -18 8 -31 18 -29 21 6 5 86
-35 142 -71 l40 -26 -36 32 -37 33 15 38 c8 20 19 37 23 37 5 0 22 -12 39 -26
31 -26 71 -26 71 -1 0 7 9 1 19 -12 17 -23 21 -24 41 -10 20 13 27 12 78 -13
112 -57 218 -23 148 47 -14 14 -20 27 -15 30 5 4 9 14 9 24 0 13 10 21 34 25
19 4 37 13 40 21 3 8 14 15 24 15 11 0 26 7 33 16 12 15 15 13 26 -14 7 -16
24 -39 38 -50z m-509 -18 c-3 -7 0 -15 7 -18 8 -3 6 -5 -3 -5 -8 0 -22 4 -30
9 -13 8 -12 10 3 10 15 0 16 3 6 23 -11 20 -11 21 5 8 9 -8 15 -20 12 -27z
m34 0 c12 -19 20 -37 18 -39 -2 -3 -15 13 -27 35 -28 50 -21 53 9 4z m1025
-12 c-3 -3 -11 0 -18 7 -9 10 -8 11 6 5 10 -3 15 -9 12 -12z m-1055 -32 c0 -5
-7 -10 -16 -10 -8 0 -12 5 -9 10 3 6 10 10 16 10 5 0 9 -4 9 -10z m660 -14 c0
-3 -4 -8 -10 -11 -5 -3 -10 -1 -10 4 0 6 5 11 10 11 6 0 10 -2 10 -4z m44 -8
c-3 -4 -11 -5 -19 -1 -21 7 -19 12 4 10 11 0 18 -5 15 -9z m100 -37 c9 -11 8
-13 -4 -9 -8 2 -16 18 -17 34 -1 18 0 22 4 9 3 -11 10 -26 17 -34z m-96 -6
c-3 -3 -9 2 -12 12 -6 14 -5 15 5 6 7 -7 10 -15 7 -18z"/>
<path d="M1207 1716 c26 -24 50 -42 53 -39 6 6 -79 83 -92 83 -6 0 12 -20 39
-44z"/>
<path d="M821 1653 c-1 -17 16 -25 25 -12 4 7 3 9 -4 5 -5 -3 -13 0 -15 6 -4
9 -6 10 -6 1z"/>
<path d="M920 1640 c-9 -6 -10 -10 -3 -10 6 0 15 5 18 10 8 12 4 12 -15 0z"/>
<path d="M1237 1613 c-10 -9 -9 -23 1 -23 5 0 9 7 9 15 0 17 -1 18 -10 8z"/>
<path d="M920 1545 c0 -9 -7 -18 -15 -21 -19 -8 -19 -20 1 -28 8 -3 22 1 30 9
9 9 11 15 4 15 -6 0 -8 5 -5 10 5 8 11 7 21 -1 12 -10 10 -15 -15 -33 l-29
-22 49 -55 c33 -35 42 -42 27 -19 -14 19 -24 40 -23 45 2 22 17 55 24 55 4 0
8 7 8 15 0 8 -4 12 -7 10 -4 -3 -18 4 -30 15 -28 24 -40 25 -40 5z"/>
<path d="M1135 1504 c-14 -10 -14 -12 1 -18 9 -3 26 2 40 13 l24 19 -25 -2
c-13 0 -32 -6 -40 -12z"/>
<path d="M804 1417 c-30 -68 -42 -113 -23 -87 9 12 10 11 6 -7 -7 -34 68 -68
126 -58 23 4 54 9 69 10 14 2 31 6 36 9 15 9 24 85 12 104 -7 13 -8 9 -4 -15
4 -19 2 -33 -3 -33 -5 0 -9 -10 -9 -22 2 -51 -104 -1 -119 56 -12 44 -38 95
-50 100 -8 3 -23 -18 -41 -57z m76 -87 c0 -5 -4 -10 -10 -10 -5 0 -10 5 -10
10 0 6 5 10 10 10 6 0 10 -4 10 -10z"/>
<path d="M1082 1405 c-18 -20 -32 -44 -31 -57 1 -20 2 -20 9 5 10 34 29 59 40
52 7 -5 24 24 18 31 -2 1 -18 -13 -36 -31z"/>
<path d="M933 1373 c-3 -10 -8 -21 -10 -25 -2 -5 -1 -8 4 -8 4 0 13 11 20 25
6 14 7 25 2 25 -5 0 -12 -8 -16 -17z"/>
<path d="M1215 1264 l-30 -15 28 6 c21 4 27 2 21 -6 -4 -8 -3 -9 5 -5 6 4 9
11 6 16 -3 5 7 11 22 13 26 4 26 4 3 5 -14 0 -38 -6 -55 -14z"/>
<path d="M1365 1501 c-3 -6 5 -15 17 -21 21 -10 21 -10 6 3 -10 8 -15 17 -11
20 3 4 4 7 0 7 -3 0 -8 -4 -12 -9z"/>
<path d="M1497 1209 c7 -7 15 -10 18 -7 3 3 -2 9 -12 12 -14 6 -15 5 -6 -5z"/>
<path d="M1340 990 c-9 -6 -10 -10 -3 -10 6 0 15 5 18 10 8 12 4 12 -15 0z"/>
<path d="M744 1004 c-11 -59 2 -151 30 -208 45 -91 160 -187 188 -157 8 8 8
11 2 8 -15 -9 -66 17 -56 28 4 5 2 5 -5 1 -6 -3 -16 2 -22 11 -6 10 -11 14
-11 8 0 -14 -57 51 -75 86 -9 16 -12 29 -8 29 5 0 2 4 -5 9 -7 4 -14 24 -15
44 -1 20 -5 37 -9 37 -4 0 -5 32 -3 70 5 76 0 92 -11 34z"/>
<path d="M920 934 c0 -14 4 -23 9 -20 5 3 7 15 4 26 -7 28 -13 25 -13 -6z"/>
<path d="M1531 1011 c-11 -7 -6 -32 28 -132 44 -132 47 -149 30 -149 -5 0 -8
4 -5 8 2 4 -4 26 -14 47 -10 22 -19 34 -19 27 -1 -7 -6 -10 -11 -7 -8 5 -7 11
0 20 9 11 7 24 -9 57 -11 24 -27 60 -35 81 l-16 38 -24 -18 c-13 -10 -21 -24
-18 -33 3 -9 -2 -6 -11 5 -12 15 -16 16 -17 5 0 -19 14 -42 26 -41 5 0 9 -8 8
-19 0 -10 3 -17 8 -14 5 3 6 23 3 45 -5 33 -4 38 10 32 13 -4 15 -14 11 -37
-5 -29 -5 -30 9 -12 15 19 15 19 14 -5 0 -13 2 -35 6 -49 5 -19 4 -22 -4 -10
-9 12 -11 9 -11 -15 0 -23 -3 -27 -10 -15 -5 8 -10 10 -10 4 0 -6 7 -17 15
-24 9 -8 13 -22 10 -39 l-5 -26 10 25 c6 13 8 35 5 47 -3 13 -1 23 4 23 5 0
12 10 15 23 2 12 3 1 1 -26 -2 -26 -7 -52 -10 -58 -4 -5 -4 -22 0 -37 6 -23 8
-24 16 -10 5 9 15 15 22 14 25 -4 56 -27 53 -39 -1 -6 -1 -9 1 -4 8 13 22 -3
16 -18 -3 -9 1 -15 8 -15 11 0 11 -3 -1 -10 -8 -5 -22 -7 -30 -5 -8 2 -22 0
-30 -5 -8 -5 -11 -10 -6 -10 6 0 1 -7 -10 -15 -18 -14 -18 -14 9 -15 19 0 26
4 21 11 -5 9 1 10 20 5 19 -5 28 -2 32 9 3 8 10 12 15 9 5 -3 9 0 9 6 0 6 4 9
9 6 5 -3 12 1 15 9 3 8 11 14 17 13 7 -2 14 12 16 32 3 19 1 31 -4 27 -4 -5
-8 -12 -8 -15 -1 -27 -35 -43 -35 -17 0 8 -4 15 -10 15 -14 0 -13 -13 2 -28 6
-6 9 -14 6 -17 -8 -8 -39 6 -33 15 7 12 -6 41 -15 35 -5 -3 -11 -1 -15 5 -3 5
3 10 14 10 12 0 21 -4 21 -10 0 -5 6 -7 14 -4 8 3 17 1 21 -5 3 -6 10 -11 14
-11 7 0 8 14 2 54 0 6 -7 2 -14 -8 -19 -26 -53 -13 -66 24 -9 28 -8 30 13 30
12 0 25 3 29 6 7 8 -15 44 -27 44 -5 0 -1 -9 9 -20 18 -19 17 -20 -4 -20 -12
0 -20 4 -16 9 3 5 1 12 -5 16 -22 13 -47 82 -37 100 7 13 6 16 -2 11 -6 -4
-11 0 -11 9 0 10 -5 14 -12 9 -10 -6 -10 -4 0 7 6 7 12 18 12 24 0 5 -5 3 -11
-5 -9 -12 -10 -11 -6 8 3 12 4 22 4 22 -1 0 -8 -4 -16 -9z m72 -197 c-7 -20
-10 -18 -15 11 -4 20 -2 23 8 14 7 -6 10 -17 7 -25z m-52 -23 c6 9 8 3 6 -18
-1 -17 -4 -29 -6 -27 -2 2 -10 -1 -18 -7 -10 -9 -13 -8 -13 5 0 9 5 16 11 16
6 0 8 10 5 23 -3 12 -3 16 0 8 5 -11 8 -11 15 0z m139 -61 c0 -5 -5 -10 -11
-10 -5 0 -7 5 -4 10 3 6 8 10 11 10 2 0 4 -4 4 -10z"/>
<path d="M1463 875 c-6 -6 -8 -18 -3 -24 5 -9 9 -5 13 10 7 28 6 31 -10 14z"/>
<path d="M1045 732 c-12 -8 -13 -27 -4 -37 4 -3 9 6 11 20 3 14 5 25 4 25 0 0
-6 -4 -11 -8z"/>
<path d="M795 550 c-3 -5 -1 -10 4 -10 6 0 11 5 11 10 0 6 -2 10 -4 10 -3 0
-8 -4 -11 -10z"/>
</g>
</svg>
