<?xml version="1.0" standalone="no"?>
<!DOCTYPE svg PUBLIC "-//W3C//DTD SVG 20010904//EN"
 "http://www.w3.org/TR/2001/REC-SVG-20010904/DTD/svg10.dtd">
<svg version="1.0" xmlns="http://www.w3.org/2000/svg"
 width="880.000000pt" height="1151.000000pt" viewBox="0 0 880.000000 1151.000000"
 preserveAspectRatio="xMidYMid meet">

<g transform="translate(0.000000,1151.000000) scale(0.100000,-0.100000)"
fill="#000000" stroke="none">
<path d="M7015 11081 c-33 -14 -105 -92 -130 -141 -30 -60 -52 -168 -61 -305
-7 -109 -21 -168 -50 -213 l-15 -24 -55 52 c-54 52 -56 52 -107 48 -57 -5
-189 -58 -224 -91 -14 -12 -23 -32 -23 -49 0 -44 36 -73 108 -87 85 -17 124
-52 152 -137 19 -56 27 -67 61 -85 36 -18 38 -21 24 -35 -8 -9 -15 -27 -15
-41 0 -14 -9 -40 -19 -57 -22 -36 -100 -235 -130 -330 -23 -74 -17 -116 24
-165 14 -16 23 -35 20 -43 -3 -7 -14 -72 -24 -144 -11 -71 -24 -142 -30 -155
-5 -14 -43 -64 -84 -112 -95 -108 -116 -145 -162 -284 -32 -98 -55 -146 -55
-114 0 17 -80 111 -95 111 -7 0 -22 -10 -32 -22 -16 -21 -25 -23 -89 -20 -67
3 -73 2 -113 -30 -25 -19 -62 -66 -90 -113 -45 -76 -49 -80 -91 -87 -25 -4
-55 -10 -67 -13 -21 -5 -23 -2 -23 33 0 48 -60 173 -97 202 -14 11 -48 28 -74
37 -44 16 -49 21 -64 68 -37 113 -152 279 -242 346 -67 51 -105 68 -180 84
-36 8 -67 16 -70 19 -8 8 -22 158 -22 247 -1 137 56 261 140 304 33 18 147 20
182 4 30 -14 54 -55 63 -107 6 -40 4 -45 -40 -92 -53 -57 -61 -98 -24 -124 32
-22 90 -20 121 4 41 32 70 123 62 194 -13 116 -82 223 -173 268 -38 18 -63 23
-132 23 -224 -1 -394 -103 -536 -321 -63 -96 -103 -189 -129 -305 l-18 -77
-41 -6 c-23 -4 -81 -26 -131 -50 -146 -72 -295 -222 -386 -391 -34 -63 -49
-80 -78 -91 -93 -37 -133 -60 -170 -98 -71 -73 -121 -205 -106 -284 3 -20 17
-59 31 -85 38 -73 32 -83 -46 -79 -36 1 -70 -1 -76 -5 -6 -4 -26 -32 -44 -61
l-33 -54 -59 7 c-56 7 -61 5 -111 -29 -29 -19 -64 -44 -79 -56 l-26 -20 -47
40 c-25 22 -55 40 -65 40 -21 0 -180 -116 -180 -131 0 -5 -7 -9 -16 -9 -19 0
-125 -41 -223 -88 -62 -29 -81 -33 -117 -28 -25 3 -55 1 -69 -6 -30 -13 -78
-87 -97 -145 -11 -36 -17 -42 -47 -48 -59 -11 -301 -104 -378 -145 -97 -52
-172 -109 -260 -196 -40 -40 -86 -80 -103 -89 -16 -8 -33 -23 -38 -33 -4 -9
-8 -132 -7 -272 l0 -255 49 -102 49 -102 -47 -54 c-33 -39 -46 -63 -46 -85 0
-38 93 -301 127 -359 31 -54 83 -99 123 -108 29 -6 32 -10 28 -39 -4 -27 -81
-415 -122 -611 -8 -38 -39 -142 -69 -230 -129 -371 -207 -790 -207 -1106 0
-143 1 -147 25 -170 13 -13 25 -32 25 -42 0 -21 -56 -211 -135 -462 -64 -202
-84 -278 -137 -530 -49 -233 -58 -373 -34 -492 34 -167 137 -456 232 -646 63
-127 186 -337 197 -337 5 0 7 15 3 33 -27 147 -38 315 -43 684 l-6 403 36 15
c58 24 124 36 149 26 20 -7 29 -29 61 -152 21 -83 45 -152 56 -162 13 -14 51
-22 157 -34 76 -8 145 -17 152 -19 14 -4 -145 -329 -236 -483 -46 -77 -56
-101 -54 -135 1 -35 -4 -47 -36 -79 -30 -31 -35 -41 -25 -55 8 -14 4 -26 -23
-63 -53 -72 -88 -151 -143 -323 -43 -133 -51 -170 -49 -220 4 -83 16 -89 169
-82 134 7 288 34 403 72 125 42 680 330 730 379 55 55 106 127 106 152 0 13 6
34 14 46 8 12 24 80 36 150 22 133 55 260 116 448 30 95 39 111 62 120 15 6
61 25 102 44 112 50 160 59 231 41 77 -20 136 -51 238 -125 60 -44 93 -61 115
-61 17 0 150 15 295 34 208 26 267 37 276 50 7 9 15 39 19 66 l7 50 44 0 c24
0 67 -5 95 -11 l50 -11 0 -50 c0 -93 42 -127 199 -162 126 -29 215 -36 298
-26 87 11 100 18 288 155 72 52 159 110 195 129 80 42 260 99 381 122 101 18
102 18 114 -44 5 -29 3 -37 -17 -50 -51 -35 -88 -83 -88 -115 0 -51 135 -537
166 -599 8 -14 32 -39 54 -55 29 -21 41 -37 46 -63 12 -69 20 -85 46 -88 18
-2 37 -21 69 -70 75 -114 120 -151 247 -206 62 -27 145 -69 185 -94 87 -54
210 -108 292 -128 110 -26 420 -11 473 22 31 20 29 71 -8 220 -34 142 -60 203
-128 311 -28 43 -54 91 -57 106 -4 16 -18 35 -32 44 -41 27 -65 86 -57 143 6
46 5 50 -20 61 -21 10 -25 17 -19 33 16 44 7 91 -29 146 -19 30 -68 141 -107
245 -40 105 -86 219 -104 255 l-32 65 -53 3 -54 3 -24 56 c-20 45 -23 58 -12
64 88 50 107 83 107 191 l1 66 68 62 c85 77 173 121 334 164 180 49 374 67
393 36 7 -11 32 -240 41 -362 3 -54 10 -98 14 -98 11 0 49 127 72 245 29 149
23 193 -77 555 -116 418 -139 510 -155 607 l-13 81 56 139 c72 176 81 220 74
358 -15 257 -165 940 -226 1025 -24 34 -174 155 -241 194 -84 49 -106 99 -185
422 -125 511 -195 823 -265 1194 -56 294 -121 613 -127 623 -2 4 40 83 95 175
160 268 232 428 318 702 22 72 35 94 82 145 69 75 104 129 138 216 26 66 29
69 60 69 26 0 39 7 58 33 41 54 53 103 67 287 16 206 17 283 6 328 -8 31 -4
39 32 82 72 85 81 107 91 230 17 192 16 400 -2 435 -38 71 -135 137 -302 205
-70 29 -116 54 -138 77 l-33 34 -5 130 c-4 100 -8 132 -20 139 -18 12 -38 12
-65 1z m66 -41 c4 -14 7 -71 8 -128 l1 -103 38 -39 c28 -30 64 -51 145 -84
171 -71 265 -135 294 -203 16 -40 17 -148 2 -353 -13 -175 -23 -209 -88 -282
l-42 -48 -106 108 -105 107 84 -95 c105 -117 138 -166 138 -203 l0 -28 -60 50
c-63 52 -198 136 -206 128 -3 -3 20 -19 51 -37 78 -45 202 -145 210 -169 6
-19 -18 -352 -30 -427 -3 -17 -19 -52 -35 -77 -23 -37 -35 -47 -56 -47 -20 0
-25 4 -20 16 3 9 6 20 6 25 0 4 7 6 15 3 27 -11 16 13 -22 47 -95 83 -268 181
-432 244 -82 32 -100 35 -191 35 -55 0 -100 -4 -100 -9 0 -5 5 -11 11 -13 5
-2 7 -11 3 -21 -18 -48 -68 36 -60 101 6 45 116 340 141 379 9 12 32 32 53 42
40 22 39 27 -2 11 -23 -9 -26 -7 -26 15 0 27 9 31 90 40 48 6 158 -3 247 -19
15 -3 8 1 -17 10 -28 10 -89 17 -165 20 -94 2 -130 7 -167 24 -43 19 -48 25
-62 75 -28 93 -74 133 -179 155 -62 12 -80 31 -75 78 4 32 67 71 169 102 79
25 101 19 171 -46 68 -63 102 -76 174 -64 124 20 172 8 233 -58 28 -31 30 -32
13 -7 -56 84 -101 101 -224 83 -67 -9 -93 -9 -113 0 l-26 12 20 27 c25 35 51
140 51 211 0 76 18 187 42 260 28 86 116 185 162 180 22 -2 32 -9 37 -28z
m-1869 -1183 c87 -51 140 -141 146 -249 7 -110 -34 -188 -98 -188 -80 0 -91
43 -28 108 39 38 43 47 41 88 -4 109 -61 157 -180 152 -92 -4 -141 -36 -189
-122 -49 -89 -58 -160 -43 -351 14 -186 8 -232 -47 -345 -19 -40 -28 -67 -19
-60 18 15 19 7 3 -23 -10 -20 -10 -21 6 -8 10 8 31 41 47 74 24 47 31 76 35
140 2 44 5 82 7 83 7 8 133 -29 177 -51 125 -63 272 -263 316 -427 18 -67 41
-107 29 -50 -7 35 -2 38 42 21 42 -16 82 -57 113 -119 38 -76 46 -131 24 -165
l-17 -26 -29 53 c-33 63 -103 146 -113 136 -4 -4 8 -26 28 -50 19 -24 49 -71
65 -105 l31 -61 -33 -69 c-46 -94 -55 -130 -63 -253 -6 -93 -11 -114 -43 -185
-24 -50 -62 -109 -103 -156 -74 -85 -120 -111 -322 -178 -66 -22 -101 -37 -88
-39 13 -2 75 14 138 36 63 21 115 38 115 36 0 -4 -172 -111 -280 -173 l-105
-60 -21 20 c-13 13 -32 19 -49 17 -24 -3 -29 2 -40 32 -14 43 -35 48 -81 21
-29 -17 -38 -19 -55 -8 -16 10 -27 8 -68 -14 -37 -19 -54 -23 -77 -17 -16 5
-94 20 -174 33 -80 14 -163 32 -186 41 -53 19 -160 99 -124 92 14 -3 101 -22
194 -42 93 -20 170 -35 173 -32 2 2 -40 14 -94 26 -329 73 -441 119 -548 225
-92 90 -110 135 -110 270 0 133 22 213 96 355 31 59 40 84 26 67 -13 -16 -41
-62 -61 -103 -20 -41 -39 -74 -41 -74 -3 0 -14 19 -26 42 -46 90 -4 251 88
340 48 47 173 106 173 83 0 -3 -7 -21 -14 -40 -29 -68 -5 -33 45 68 83 164
154 258 274 359 66 56 218 140 278 154 25 6 27 4 27 -25 0 -17 -4 -31 -9 -31
-5 0 -7 -19 -4 -42 4 -29 3 -39 -5 -34 -32 19 30 -161 65 -191 14 -13 27 -22
29 -21 1 2 -11 42 -27 89 -44 132 -47 203 -14 335 36 143 62 206 129 308 93
143 192 230 319 278 79 30 124 37 218 34 72 -2 93 -6 131 -29z m1594 -408
c159 -48 475 -230 482 -276 4 -24 -59 -190 -91 -242 -12 -20 -47 -63 -78 -97
-44 -47 -61 -76 -79 -130 -45 -138 -143 -391 -182 -469 -22 -44 -77 -143 -123
-220 -45 -77 -110 -192 -145 -255 -34 -63 -74 -132 -87 -153 -22 -35 -22 -38
-6 -33 17 5 22 -6 45 -101 15 -60 30 -136 33 -170 l7 -61 -89 19 c-158 34
-185 45 -230 91 -86 89 -246 372 -312 552 l-28 80 28 107 c15 60 42 142 59
183 29 70 35 77 95 115 83 52 122 111 180 276 53 150 76 193 152 281 86 102
100 128 113 207 29 175 40 233 56 273 l17 44 57 0 c32 0 89 -9 126 -21z m-758
-841 c-3 -7 -19 -14 -36 -16 -46 -5 -118 -79 -205 -214 -127 -195 -262 -419
-312 -518 -72 -142 -117 -222 -122 -217 -6 7 168 351 270 532 241 430 254 445
355 445 38 0 53 -4 50 -12z m-41 -135 c-18 -33 -179 -421 -218 -526 -26 -73
-48 -127 -49 -120 0 6 16 73 35 148 26 107 49 167 99 269 71 142 123 236 132
236 3 0 3 -3 1 -7z m-311 -104 c-29 -23 -88 -134 -141 -264 -18 -45 -40 -95
-48 -111 l-16 -29 0 50 c-1 67 21 144 65 230 48 96 73 125 114 135 53 12 55
12 26 -11z m114 -192 c-35 -78 -73 -214 -105 -382 -24 -126 -26 -131 -66 -170
-23 -22 -39 -33 -36 -25 38 102 72 263 60 283 -9 15 -23 -6 -137 -196 -72
-121 -138 -218 -176 -260 -34 -37 -59 -71 -56 -76 3 -5 0 -11 -7 -14 -6 -3
-35 -14 -62 -25 l-50 -20 103 107 c125 128 149 162 286 410 89 162 259 431
271 431 2 0 -9 -28 -25 -63z m-2318 -83 c4 -3 -10 -21 -30 -39 -36 -33 -37
-35 -36 -107 1 -90 31 -179 76 -226 47 -48 183 -144 256 -181 34 -17 91 -54
125 -82 65 -54 148 -99 182 -99 22 0 233 -84 248 -99 6 -6 1 -13 -12 -20 -16
-9 -72 -5 -249 19 -126 16 -261 36 -301 43 -39 8 -74 10 -77 6 -5 -9 73 -47
136 -67 19 -6 91 -18 160 -27 220 -29 233 -32 95 -28 -127 5 -209 10 -503 35
l-143 12 -152 126 c-191 159 -247 220 -337 365 -60 97 -77 117 -101 122 -16 3
-32 9 -34 14 -6 9 108 99 124 99 7 0 27 -33 45 -73 32 -71 197 -318 217 -325
18 -7 9 15 -56 134 -79 147 -85 167 -53 201 34 36 113 93 130 93 12 0 14 -11
10 -50 -4 -45 1 -61 46 -153 58 -116 125 -205 196 -258 55 -42 324 -184 333
-176 3 3 2 10 -1 16 -11 17 -186 131 -257 166 -36 19 -78 47 -92 64 -39 46
-157 265 -157 291 0 13 26 65 57 116 l57 94 46 0 c26 0 49 -3 52 -6z m2503
-341 c112 -235 240 -430 304 -462 45 -23 272 -74 294 -65 11 4 21 -4 31 -25 9
-16 16 -35 16 -41 0 -30 -308 44 -380 90 -62 40 -83 70 -208 291 -142 254
-165 304 -157 349 10 51 17 58 28 25 5 -17 38 -89 72 -162z m-3226 52 c17 -8
65 -67 117 -142 61 -88 130 -169 219 -259 157 -159 175 -169 460 -249 109 -31
206 -60 215 -65 9 -6 -95 -10 -270 -10 -256 0 -289 2 -321 18 -20 10 -182 118
-361 240 -179 121 -344 231 -367 243 -30 15 -61 22 -105 22 -58 1 -66 -2 -89
-29 -14 -16 -28 -26 -31 -23 -12 12 59 134 84 145 24 11 119 6 222 -11 57 -10
46 16 -13 30 l-44 11 80 33 c160 67 163 68 204 46z m-405 -250 c18 -13 17 -15
-10 -39 -27 -23 -27 -25 -8 -26 12 0 35 5 52 11 29 10 39 5 209 -108 98 -66
213 -141 256 -167 42 -26 77 -49 77 -51 0 -21 -69 -191 -92 -227 -59 -94 -188
-192 -281 -214 l-28 -6 25 64 c32 87 52 124 69 131 35 13 107 19 107 8 0 -6 5
-11 10 -11 15 0 12 40 -4 46 -28 11 -144 -28 -274 -92 -141 -69 -203 -84 -363
-84 l-66 0 -18 39 c-22 49 -70 100 -110 117 -37 15 -171 29 -140 15 11 -5 33
-10 48 -10 70 -2 139 -52 187 -136 61 -106 66 -95 -76 -165 -141 -69 -265
-150 -369 -239 l-69 -60 -38 67 c-63 111 -72 156 -63 312 4 74 7 179 6 232 -3
91 -1 97 20 108 12 7 60 48 107 92 107 102 187 160 282 208 85 43 327 135 380
145 19 4 55 17 80 29 54 28 69 30 94 11z m2855 -51 c-69 -76 -325 -231 -346
-211 -2 2 51 36 117 75 66 39 148 92 182 117 71 52 81 56 47 19z m412 -217
c-18 -35 -63 -101 -102 -147 -85 -102 -106 -145 -128 -257 l-18 -88 -22 43
c-20 39 -21 49 -12 93 16 75 63 158 130 232 33 37 72 89 85 115 16 31 35 53
58 64 18 8 35 14 37 12 2 -2 -10 -32 -28 -67z m-1014 2 c-19 -56 -19 -66 -8
-118 7 -31 15 -72 17 -91 4 -33 3 -32 -20 18 -14 28 -29 52 -34 52 -6 0 -8
-24 -5 -58 5 -55 4 -60 -22 -80 -15 -12 -31 -22 -35 -22 -5 0 -24 29 -44 64
-34 60 -36 70 -36 154 0 84 1 91 25 106 13 9 28 16 32 16 4 0 6 -25 5 -56 -4
-64 5 -124 18 -124 6 0 10 8 10 18 0 10 7 45 15 77 16 63 50 105 85 105 17 0
17 -3 -3 -61z m933 2 c0 -11 -34 -57 -99 -133 -56 -64 -106 -158 -117 -215
l-6 -33 -28 38 c-27 38 -100 87 -198 132 l-53 24 53 24 c71 33 420 170 436
171 6 1 12 -3 12 -8z m-810 -25 c0 -12 -58 -42 -65 -34 -2 2 1 13 6 26 9 25
59 32 59 8z m-490 -246 c-92 -96 -157 -157 -165 -154 -27 11 -84 -145 -65
-176 19 -31 82 25 150 134 19 30 36 52 38 47 6 -19 -58 -345 -75 -379 -17 -33
-35 -45 -161 -107 -211 -104 -273 -172 -306 -336 -18 -94 -18 -81 -5 181 12
251 17 268 120 472 85 168 152 271 210 323 37 34 215 138 364 213 l40 20 3
-39 c3 -39 -1 -44 -148 -199z m514 205 c7 -20 -54 -91 -65 -74 -6 10 -11 10
-23 0 -10 -8 -16 -9 -16 -3 0 8 88 92 96 92 1 0 4 -7 8 -15z m336 -6 c-19 -12
-52 -37 -72 -57 -31 -29 -41 -34 -58 -26 -19 8 -12 15 62 57 81 46 137 67 68
26z m-2111 -68 c12 -8 10 -22 -13 -88 -54 -153 -136 -274 -237 -348 -62 -46
-200 -105 -244 -105 l-26 0 23 42 c19 34 32 44 73 58 148 50 255 142 322 276
22 44 46 100 53 127 14 47 23 54 49 38z m1859 -201 c42 -69 84 -136 95 -150
22 -30 85 -70 109 -70 22 0 32 38 24 89 -13 81 54 53 169 -71 127 -137 190
-299 261 -668 3 -14 -15 13 -40 60 -63 119 -126 174 -322 282 -88 48 -198 105
-246 127 -50 23 -92 49 -98 62 -14 25 -35 160 -49 311 -6 59 -17 124 -26 144
-8 20 -12 40 -9 46 11 18 55 -36 132 -162z m-165 42 c36 -51 43 -77 67 -240
11 -79 24 -151 29 -160 5 -9 50 -37 101 -62 85 -42 90 -45 64 -51 -16 -4 -46
-7 -66 -8 -42 -1 -241 -42 -234 -48 2 -2 49 5 104 17 55 11 130 20 166 20 41
0 66 4 66 11 0 12 223 -102 305 -156 80 -54 128 -113 192 -242 71 -143 77
-137 76 79 l0 158 26 -7 c43 -12 166 -6 223 11 29 8 109 47 178 86 291 163
475 239 625 256 l55 7 17 -39 c9 -22 18 -68 21 -104 4 -64 3 -66 -41 -126 -24
-33 -64 -77 -88 -96 -168 -136 -754 -396 -1191 -528 -234 -71 -457 -109 -757
-130 -183 -13 -468 -1 -873 37 -46 4 -68 10 -68 19 0 7 25 46 55 86 52 68 55
76 55 130 0 53 1 57 28 63 39 9 117 68 152 117 33 45 70 152 70 202 0 28 12
42 88 108 156 135 200 184 241 272 21 45 46 113 55 151 9 39 24 87 33 108 15
34 19 37 44 32 28 -6 72 11 118 46 32 25 34 25 64 -19z m-1121 -57 c39 -42
104 -96 145 -122 74 -47 81 -56 63 -83 -8 -13 -15 -12 -52 9 -130 73 -208 142
-256 229 l-23 42 26 0 c20 0 44 -19 97 -75z m334 18 c-18 -27 -48 -76 -66
-111 -38 -72 -33 -72 -131 -6 -62 41 -159 137 -159 156 0 5 88 8 195 8 l195 0
-34 -47z m2852 -280 c3 -45 0 -52 -18 -58 -25 -8 -25 -8 -35 24 -6 21 -5 23
14 18 11 -3 21 -2 21 3 0 4 -10 10 -22 14 -114 30 -378 -52 -616 -190 -259
-152 -351 -184 -480 -168 -57 7 -72 22 -72 69 0 22 4 26 18 20 35 -13 149 -17
207 -6 39 7 120 41 231 95 271 133 456 202 624 230 14 2 48 3 75 2 l50 -1 3
-52z m-4587 -41 c35 -37 110 -111 167 -164 99 -93 102 -98 102 -139 0 -39 -5
-49 -57 -101 -68 -68 -54 -79 16 -13 l49 46 61 -71 c34 -39 69 -86 78 -103 22
-43 28 -142 14 -263 -13 -122 -30 -172 -80 -238 -21 -28 -55 -83 -76 -123 -71
-138 -188 -223 -318 -231 -66 -4 -68 -4 -122 37 -62 47 -67 66 -32 123 l22 37
48 -29 c35 -22 47 -36 47 -54 0 -27 51 -76 78 -76 11 1 8 6 -10 16 -27 14 -48
42 -48 64 0 7 19 1 44 -14 25 -14 51 -26 58 -26 7 0 -26 23 -73 51 -164 97
-211 143 -229 226 -14 62 48 189 143 290 17 18 28 35 25 38 -16 16 -158 -190
-179 -259 -12 -42 -14 -43 -40 -34 -42 15 -44 40 -10 114 21 46 51 85 103 136
59 57 63 63 21 29 -67 -54 -109 -103 -136 -157 -25 -52 -31 -53 -142 -19 -96
29 -130 60 -173 155 -38 84 -112 296 -112 320 0 43 243 270 373 348 49 30 303
151 318 152 3 0 35 -30 70 -68z m714 -312 c104 -9 235 -45 317 -86 26 -13 85
-49 132 -79 112 -73 179 -103 249 -111 50 -6 57 -9 57 -29 0 -12 -3 -24 -6
-27 -16 -16 -163 43 -355 141 -136 70 -238 116 -279 125 -84 20 -275 20 -404
1 -99 -15 -100 -15 -123 7 -35 32 -13 46 87 56 115 13 206 13 325 2z m1141
-62 c-14 -100 -60 -178 -140 -232 -67 -47 -88 -47 -79 -3 3 17 13 36 22 41 35
20 88 88 101 128 8 27 28 57 54 80 22 21 43 38 45 38 2 0 0 -23 -3 -52z
m-1005 -24 c60 -18 155 -64 329 -160 67 -36 151 -73 200 -87 l85 -25 3 -137
c2 -127 1 -136 -15 -131 -10 3 -128 26 -263 51 -255 48 -516 108 -650 150
l-77 25 -5 68 c-5 74 -29 130 -80 187 -18 21 -27 40 -22 45 31 29 406 40 495
14z m3828 -285 c80 -22 125 -66 203 -198 87 -146 242 -459 296 -596 77 -198
153 -434 159 -495 6 -64 -17 -197 -147 -850 -49 -245 -100 -485 -115 -535 -45
-155 -65 -187 -209 -330 -72 -72 -159 -154 -194 -183 l-63 -52 -85 0 c-49 0
-84 4 -84 10 0 21 75 91 122 115 83 42 190 107 184 112 -2 3 -45 -18 -95 -46
-50 -28 -93 -51 -97 -51 -3 0 21 30 53 68 160 181 263 314 273 350 24 92 60
542 60 757 0 330 -87 1041 -140 1145 -73 144 -332 357 -582 481 -60 30 -108
56 -108 59 0 3 21 18 47 33 l46 28 48 -19 c40 -17 100 -53 324 -197 26 -17 28
-18 16 -2 -21 27 -228 167 -298 202 l-62 31 35 19 c35 18 35 18 82 -4 83 -40
237 -148 315 -221 65 -61 153 -178 254 -339 2 -2 5 -2 8 0 12 12 -163 266
-229 333 -77 78 -213 179 -308 228 l-59 32 23 18 c13 9 37 25 54 34 30 16 34
16 69 0 23 -11 68 -19 119 -22 l81 -3 -80 13 c-44 8 -93 19 -110 26 l-29 11
59 34 c36 21 67 32 79 29 10 -3 48 -14 85 -25z m-1484 -302 c32 -45 105 -150
161 -233 l103 -151 -53 -52 c-33 -33 -58 -50 -68 -46 -10 4 -14 -1 -14 -17 1
-17 -4 -22 -18 -20 -11 2 -15 -1 -11 -8 4 -6 -10 -30 -33 -53 -21 -23 -68 -73
-103 -111 -76 -81 -154 -139 -264 -195 -132 -67 -266 -86 -423 -61 -82 14
-222 58 -222 71 0 6 -4 7 -10 4 -26 -16 -356 166 -346 191 3 8 1 14 -4 14 -6
0 -10 -5 -10 -11 0 -5 -13 -2 -30 8 -16 9 -30 21 -30 25 0 4 -3 7 -7 6 -5 -1
-27 8 -51 21 -33 17 -42 26 -37 39 19 50 310 555 323 559 8 4 21 -2 28 -12 8
-10 14 -13 14 -7 0 16 382 17 411 2 14 -8 19 -7 19 2 0 9 3 9 10 -2 8 -13 10
-12 10 3 0 13 9 17 38 17 20 0 100 9 176 21 77 11 145 18 152 15 7 -3 14 -2
16 2 2 6 180 57 208 60 3 1 32 -36 65 -81z m-3618 43 c13 0 14 -9 8 -52 -15
-114 -35 -316 -35 -363 -1 -49 -2 -52 -65 -108 -49 -44 -65 -54 -65 -40 0 10
25 140 55 288 30 149 55 274 55 279 0 4 7 5 16 2 9 -3 23 -6 31 -6z m4612 -46
c282 -149 538 -358 597 -488 36 -80 98 -489 125 -831 21 -266 -1 -804 -43
-1019 -13 -68 -35 -98 -290 -393 -203 -234 -193 -227 -296 -220 -46 3 -86 8
-90 12 -4 3 15 68 42 143 98 278 106 305 112 375 4 42 17 95 32 127 60 135
195 591 179 606 -2 3 -17 -46 -32 -108 -45 -182 -157 -498 -176 -498 -13 0
-12 4 16 70 53 126 118 436 129 615 8 124 0 96 -18 -65 -17 -147 -70 -388
-108 -489 l-25 -65 -17 135 c-19 141 -110 607 -151 769 -14 52 -54 196 -90
319 -36 124 -63 226 -61 229 5 5 34 -40 110 -172 136 -236 165 -312 206 -545
16 -86 29 -147 29 -136 2 51 -52 332 -78 403 -40 110 -191 384 -257 467 -17
22 -43 76 -58 120 -44 134 -118 222 -275 330 -39 27 -71 52 -71 56 0 10 131
109 144 109 18 0 63 -50 168 -185 105 -134 131 -149 136 -80 1 22 -4 60 -12
85 l-14 45 5 -74 c4 -50 3 -72 -4 -70 -6 2 -41 42 -78 89 -38 47 -95 113 -128
146 l-59 62 53 36 c52 35 53 35 82 18 51 -29 180 -158 222 -221 45 -69 68 -82
33 -20 -35 63 -137 179 -201 228 l-57 44 77 48 c43 27 80 49 82 49 2 0 52 -25
110 -56z m957 -176 c60 -46 118 -97 130 -115 39 -58 136 -436 192 -748 21
-121 27 -181 27 -310 l0 -160 -59 -140 c-32 -77 -116 -276 -187 -443 -72 -167
-141 -335 -156 -375 -29 -83 -63 -134 -119 -178 -72 -57 -79 -52 -18 12 34 36
71 83 82 106 48 93 103 329 221 943 44 228 85 454 92 503 15 106 11 127 -72
377 -69 208 -129 354 -205 497 -30 56 -54 105 -54 108 0 14 27 -2 126 -77z
m-4663 35 c37 -8 67 -19 67 -24 0 -18 -38 -84 -57 -102 -11 -9 -58 -30 -104
-46 -103 -36 -89 -40 19 -6 84 26 107 45 141 113 12 23 24 42 27 42 21 0 224
-65 222 -71 -2 -4 -43 -38 -93 -76 -118 -91 -372 -343 -418 -415 -62 -96 -116
-289 -153 -554 -9 -68 -17 -227 -21 -423 -5 -285 -7 -311 -21 -286 -24 46
-126 320 -178 475 -43 133 -47 153 -48 245 -1 93 2 106 37 195 21 52 72 157
113 234 41 76 74 140 72 142 -7 7 -167 -292 -197 -368 -40 -102 -54 -191 -42
-268 20 -121 179 -576 238 -678 17 -31 29 -73 38 -145 29 -223 63 -317 240
-664 74 -145 130 -263 126 -263 -23 0 -315 62 -336 72 -29 13 -69 88 -158 293
-66 153 -172 445 -223 614 -15 52 -30 89 -31 84 -4 -11 62 -229 123 -413 20
-58 63 -169 96 -248 33 -79 59 -144 57 -146 -7 -6 -251 133 -337 191 -45 30
-89 67 -96 82 -20 39 -82 314 -110 491 -41 254 -50 386 -51 730 0 381 -8 351
124 478 370 359 446 427 499 445 28 10 80 40 114 67 35 27 100 72 146 101 45
29 82 54 82 56 0 3 -29 -11 -65 -31 l-65 -36 35 70 35 70 43 -6 c23 -3 72 -12
110 -21z m460 -134 c53 -18 97 -35 97 -39 0 -15 -228 -190 -247 -190 -11 0
-26 7 -33 15 -11 13 -7 22 26 57 37 40 25 37 -23 -6 -31 -26 -30 -63 1 -77 39
-18 64 -5 184 96 62 52 122 95 133 95 27 0 25 -6 -23 -60 -42 -46 -173 -230
-165 -230 2 0 38 46 80 103 41 56 93 119 114 139 l38 37 93 -36 c50 -20 92
-39 92 -42 0 -3 -43 -45 -95 -91 -94 -83 -298 -299 -415 -439 -41 -50 -64 -87
-74 -124 -15 -52 -87 -561 -85 -601 1 -11 18 94 39 234 47 311 58 366 77 405
50 97 537 605 581 605 17 0 172 -71 172 -79 0 -3 -23 -33 -51 -66 -107 -124
-486 -641 -478 -650 2 -2 80 101 174 228 186 254 361 477 375 477 11 0 222
-118 317 -177 l72 -45 -128 -192 c-125 -186 -267 -424 -259 -432 3 -2 31 42
63 99 33 56 121 195 198 310 131 197 139 207 160 196 43 -23 97 -62 97 -69 0
-5 -41 -79 -92 -167 -50 -87 -110 -198 -134 -248 -24 -49 -43 -83 -43 -75 -1
31 27 117 58 179 18 34 30 65 28 67 -3 3 -23 -32 -45 -78 -47 -97 -79 -215
-63 -231 16 -16 25 -2 61 88 33 84 44 105 172 327 l79 136 95 -43 c52 -23 97
-45 100 -47 4 -5 -66 -280 -82 -322 -3 -9 -4 -16 -1 -16 7 0 57 156 83 258 10
39 23 72 29 72 19 0 75 -21 75 -28 0 -4 -11 -113 -25 -242 -55 -534 -78 -865
-71 -1050 3 -96 10 -209 16 -250 12 -81 50 -204 80 -260 25 -46 26 -30 1 18
-104 203 -108 529 -19 1450 l32 334 60 -9 c34 -4 112 -8 174 -8 l113 0 23 -75
c34 -108 55 -212 66 -320 l9 -95 -4 115 c-2 87 -10 143 -33 230 -17 63 -33
123 -37 132 -5 13 0 20 19 28 72 27 71 28 94 -52 12 -40 37 -179 57 -308 20
-129 39 -243 41 -252 7 -25 20 -22 50 8 28 27 28 41 3 138 -15 57 -18 40 -6
-37 9 -59 8 -70 -6 -84 -9 -9 -19 -15 -21 -12 -2 2 -23 112 -45 244 -23 132
-50 270 -61 307 -11 36 -20 69 -20 72 0 5 94 56 104 56 8 0 226 -358 247 -405
27 -60 38 -207 41 -530 1 -206 3 -227 7 -120 9 201 -4 581 -22 636 -8 26 -69
133 -137 238 -67 106 -120 193 -118 195 1 1 32 23 68 48 36 25 110 94 164 152
54 58 101 106 106 106 30 0 252 -626 299 -842 11 -51 25 -140 30 -198 18 -184
43 -863 45 -1211 1 -376 2 -371 -69 -382 -59 -10 -104 9 -122 51 -19 46 -96
417 -122 589 -11 70 -20 116 -20 101 -2 -72 68 -480 111 -641 26 -98 47 -117
129 -117 33 0 59 -4 59 -8 0 -5 -11 -18 -23 -31 -21 -19 -36 -22 -113 -23 -57
-2 -102 3 -123 11 -22 10 -110 101 -272 282 -131 148 -239 266 -239 263 0 -6
206 -246 327 -381 56 -61 79 -94 71 -99 -30 -19 -166 -6 -304 29 -78 19 -190
43 -250 52 -60 10 -124 23 -143 31 -19 8 -36 12 -39 9 -10 -10 67 -34 159 -50
52 -8 171 -34 264 -57 153 -37 179 -40 256 -35 83 5 88 4 110 -19 14 -15 19
-28 13 -33 -5 -5 -47 -20 -94 -35 -47 -14 -94 -32 -105 -41 -16 -12 -9 -11 30
4 28 10 76 24 107 31 32 6 64 18 72 26 10 10 21 11 38 5 21 -7 15 -12 -57 -48
-44 -23 -116 -52 -161 -66 -101 -32 -401 -97 -447 -97 -34 0 -386 65 -394 73
-2 2 22 7 54 11 52 6 131 21 291 56 30 7 52 17 52 24 0 10 35 15 133 20 72 4
157 11 187 16 52 9 51 9 -20 5 -466 -27 -565 -28 -860 -11 -162 9 -337 22
-388 27 -100 11 -461 97 -507 121 l-27 15 131 77 c72 42 131 79 131 82 0 3 -3
3 -7 1 -5 -2 -65 -37 -135 -76 -71 -40 -160 -92 -200 -117 -40 -24 -84 -44
-99 -44 -17 0 -41 14 -67 38 l-41 37 180 205 c99 113 189 219 200 235 l21 30
-27 -30 c-16 -16 -108 -120 -206 -231 -98 -111 -189 -209 -203 -218 -40 -26
-80 -21 -109 14 -48 57 -107 175 -107 216 0 108 86 562 176 926 128 520 319
921 581 1223 90 104 143 170 143 179 0 4 -28 -26 -62 -67 -35 -41 -92 -107
-127 -148 -35 -40 -97 -123 -137 -184 -217 -332 -325 -607 -452 -1155 l-29
-125 -11 55 c-19 91 -32 283 -33 510 l-2 215 -8 -145 c-7 -133 2 -420 17 -530
3 -25 12 -67 20 -93 12 -44 11 -59 -12 -170 -36 -177 -74 -424 -74 -485 0 -29
5 -62 11 -73 10 -19 9 -20 -13 -8 -55 29 -107 71 -114 91 -3 12 -10 65 -14
117 l-8 96 2 -112 c3 -131 3 -131 105 -192 48 -28 73 -51 90 -81 18 -32 20
-44 11 -50 -20 -12 -152 -32 -190 -28 -41 4 -44 8 -220 353 -135 263 -182 382
-217 545 -23 109 -24 132 -24 445 1 357 10 479 46 680 32 173 69 298 108 365
67 115 507 528 550 516 7 -2 56 -19 110 -37z m2755 -55 c93 -68 164 -135 202
-190 34 -49 73 -161 174 -504 86 -290 107 -375 170 -690 57 -283 78 -446 80
-630 l1 -145 -68 -185 c-37 -102 -77 -211 -89 -243 -25 -69 -43 -83 -123 -92
-33 -4 -80 -11 -104 -16 -24 -5 -45 -8 -47 -6 -2 2 46 101 107 221 61 119 109
219 106 222 -2 3 -62 -106 -133 -242 -80 -154 -138 -254 -154 -265 -14 -10
-43 -20 -66 -24 l-41 -6 -6 418 c-11 727 -38 1183 -82 1356 -49 191 -206 641
-264 756 l-31 61 34 37 35 38 71 -75 c80 -84 80 -67 0 22 -50 56 -51 58 -35
82 18 27 78 76 93 76 5 0 26 -11 46 -25 20 -13 36 -20 36 -15 0 9 -42 45 -63
54 -13 5 46 66 64 66 5 0 45 -25 87 -56z m-3882 -52 l38 -31 -55 -24 c-53 -24
-211 -77 -229 -77 -5 0 -11 8 -13 18 -4 13 -5 11 -6 -5 -1 -18 4 -23 22 -23
27 0 208 60 256 84 18 10 35 15 38 13 7 -7 -159 -150 -254 -219 -46 -33 -83
-62 -83 -65 0 -13 201 138 292 220 58 50 70 57 107 57 l43 0 -109 -102 c-218
-206 -415 -404 -431 -433 -38 -73 -36 -667 3 -970 17 -129 56 -336 80 -425 8
-30 13 -55 12 -56 -7 -7 -396 369 -401 388 -18 68 2 373 40 588 49 284 162
687 230 822 42 84 129 164 329 305 l30 21 11 -27 c6 -15 29 -42 50 -59z m-523
-1995 c-36 -180 -91 -513 -102 -622 -9 -88 -19 -216 -61 -824 -6 -79 -13 -147
-16 -152 -3 -5 -16 -9 -29 -9 -31 0 -52 32 -139 216 -76 161 -91 223 -83 349
10 150 98 553 172 785 26 80 67 217 91 305 25 88 48 168 51 179 4 15 16 8 72
-48 l67 -66 -23 -113z m313 -477 c-23 -117 -49 -458 -50 -652 -1 -119 -4 -214
-8 -210 -19 19 -58 216 -58 291 0 162 86 601 117 601 3 0 3 -14 -1 -30z m1672
-304 c39 -20 310 -92 417 -111 129 -23 509 -45 795 -46 273 -1 273 -1 20 -51
-101 -20 -144 -23 -355 -22 -360 0 -488 24 -790 144 -182 73 -178 71 -157 86
22 17 37 17 70 0z m-5 -70 c60 -24 111 -46 113 -49 8 -8 -160 -18 -193 -11
-17 3 -46 18 -64 33 l-32 27 34 21 c19 12 34 22 34 22 0 1 49 -19 108 -43z
m3440 -265 c30 -12 55 -64 142 -291 66 -176 84 -217 129 -293 24 -40 27 -54
22 -92 -4 -24 -18 -60 -31 -79 -28 -41 -17 -49 13 -11 20 26 46 33 57 15 3 -5
1 -27 -6 -48 -9 -32 -8 -44 5 -70 9 -17 16 -35 16 -40 0 -5 -26 -12 -58 -15
-88 -9 -188 -43 -287 -98 -143 -79 -153 -96 -14 -24 137 71 248 105 340 105
57 0 89 -15 89 -43 0 -7 29 -60 63 -119 70 -117 109 -222 137 -367 19 -99 16
-125 -17 -135 -75 -21 -295 -35 -381 -24 -41 5 -109 22 -153 38 -74 27 -112
46 -232 114 -26 16 -98 50 -159 77 -122 53 -148 73 -214 166 -60 85 -60 90 11
73 37 -8 43 -6 100 34 33 23 95 64 138 90 42 26 77 50 77 53 0 7 -74 -36 -188
-110 l-94 -60 -50 11 c-27 7 -62 12 -78 12 -34 0 -37 4 -46 60 l-7 42 27 -17
c45 -30 182 -8 354 57 45 17 81 32 79 34 -2 2 -40 -10 -86 -26 -83 -30 -225
-60 -288 -60 -48 0 -166 82 -188 130 -20 45 -116 368 -146 488 -26 107 -22
121 46 177 30 24 38 27 45 15 20 -32 11 -49 -27 -53 -21 -2 3 -4 54 -5 191 -4
425 44 602 122 100 44 201 108 201 127 0 13 -14 11 -28 -3 -9 -9 -14 -6 -20
13 -9 23 -7 26 25 38 1 1 13 -3 26 -8z m-2235 -179 c16 -56 40 -119 54 -140
31 -46 114 -92 218 -121 87 -24 149 -26 240 -7 36 8 66 13 67 12 1 -1 -23 -17
-54 -36 -49 -30 -65 -34 -143 -38 -96 -5 -236 15 -344 48 -82 26 -106 53 -106
123 0 85 23 278 31 270 5 -5 22 -55 37 -111z m-2419 12 c-9 -11 -22 -14 -43
-10 -22 5 -27 3 -20 -4 35 -35 756 -100 884 -80 32 5 33 7 15 17 -23 13 -14
29 11 19 22 -8 18 -23 -54 -235 -67 -194 -115 -374 -133 -501 -13 -95 -20
-112 -58 -153 -18 -20 -21 -26 -8 -22 26 11 22 -31 -5 -49 -13 -7 -72 -26
-133 -41 -122 -30 -132 -29 -325 21 -52 13 -104 27 -115 30 -17 4 -18 4 -3 -6
33 -20 272 -80 322 -80 28 0 87 9 131 19 44 11 82 17 84 15 14 -14 -83 -83
-224 -159 -293 -157 -496 -254 -590 -280 -115 -31 -280 -55 -384 -55 -138 0
-145 25 -75 256 53 176 61 192 98 204 28 9 28 10 4 6 -16 -2 -28 0 -28 5 0 7
29 18 85 33 11 3 1 3 -22 1 -24 -3 -43 -3 -43 0 0 13 41 85 66 114 21 25 24
34 14 46 -9 11 -8 19 7 39 10 13 27 29 37 36 29 18 183 40 246 35 41 -3 47 -2
25 4 -43 12 -124 13 -185 1 -92 -17 -94 23 -10 164 32 56 111 207 174 337 64
130 124 243 134 252 25 22 61 36 101 36 29 1 32 -1 20 -15z m2118 -102 c-8
-56 -16 -105 -20 -108 -3 -4 -107 -19 -229 -34 -362 -45 -341 -44 -368 -22
-23 19 -25 28 -28 129 -5 143 -11 138 155 123 100 -10 168 -10 308 -1 99 7
181 14 184 17 10 10 10 -8 -2 -104z"/>
<path d="M7233 10401 c42 -16 100 -42 128 -60 29 -17 53 -30 55 -28 10 10 -94
71 -158 93 -99 33 -121 29 -25 -5z"/>
<path d="M7280 10331 c82 -43 128 -73 159 -108 25 -26 38 -39 31 -28 -39 57
-93 101 -170 140 -47 23 -96 45 -110 49 -14 4 27 -20 90 -53z"/>
<path d="M7160 10298 c11 -19 26 -61 35 -93 l15 -60 -6 50 c-6 49 -34 118 -54
130 -5 3 -1 -9 10 -27z"/>
<path d="M7216 10253 c8 -25 15 -60 15 -77 1 -21 3 -25 6 -11 6 23 -15 122
-27 130 -4 3 -2 -16 6 -42z"/>
<path d="M7078 9993 c7 -3 16 -2 19 1 4 3 -2 6 -13 5 -11 0 -14 -3 -6 -6z"/>
<path d="M6875 9969 c28 -4 70 -15 94 -24 24 -8 46 -13 49 -11 7 8 -129 46
-162 45 -23 -1 -19 -3 19 -10z"/>
<path d="M3986 8880 c-20 -27 -32 -50 -26 -50 14 0 90 75 90 88 0 27 -31 9
-64 -38z"/>
<path d="M5170 8897 c0 -18 28 -55 51 -67 30 -17 41 -3 24 29 -15 31 -75 60
-75 38z"/>
<path d="M5030 8799 c0 -20 41 -79 62 -90 27 -15 33 -5 18 31 -19 45 -80 90
-80 59z"/>
<path d="M4139 8770 c-9 -5 -22 -24 -30 -42 -7 -18 -20 -38 -29 -45 -21 -17
-5 -16 28 1 31 16 56 55 50 79 -2 11 -7 13 -19 7z"/>
<path d="M5540 8506 c0 -24 30 -86 41 -86 11 0 8 26 -11 75 -10 27 -30 34 -30
11z"/>
<path d="M4737 8452 c-41 -44 -85 -112 -73 -112 3 0 13 14 22 32 9 17 37 53
61 80 25 26 43 48 41 48 -3 0 -26 -22 -51 -48z"/>
<path d="M4910 8464 c-30 -8 -73 -26 -96 -39 -41 -24 -144 -128 -144 -145 0
-5 21 14 48 42 63 67 115 102 193 128 96 33 96 40 -1 14z"/>
<path d="M3526 8414 c-9 -26 -16 -57 -16 -68 1 -20 1 -20 15 -2 15 19 31 103
22 112 -2 3 -12 -16 -21 -42z"/>
<path d="M4290 8446 c82 -19 130 -48 195 -117 38 -42 52 -53 42 -33 -8 16 -40
52 -70 81 -56 53 -128 84 -191 82 -23 -1 -17 -4 24 -13z"/>
<path d="M4512 8455 c0 -5 6 -26 13 -45 7 -19 14 -28 14 -20 0 8 -6 29 -14 45
-7 17 -13 26 -13 20z"/>
<path d="M4692 8448 c-14 -19 -44 -79 -40 -83 2 -2 15 19 30 46 26 49 29 60
10 37z"/>
<path d="M4491 8435 c0 -5 6 -21 14 -35 8 -14 14 -20 14 -15 0 6 -6 21 -14 35
-8 14 -14 21 -14 15z"/>
<path d="M4015 8320 c-4 -6 -16 -8 -28 -5 -16 5 -18 4 -8 -3 11 -8 10 -11 -7
-16 -11 -4 -26 -14 -34 -24 -11 -15 -11 -15 3 -5 8 7 34 21 58 31 24 11 38 22
33 26 -6 3 -14 2 -17 -4z"/>
<path d="M4058 8323 c7 -3 16 -2 19 1 4 3 -2 6 -13 5 -11 0 -14 -3 -6 -6z"/>
<path d="M4148 8323 c7 -3 16 -2 19 1 4 3 -2 6 -13 5 -11 0 -14 -3 -6 -6z"/>
<path d="M4950 8317 c0 -4 -12 -5 -27 -2 -22 4 -21 2 7 -9 19 -7 48 -11 64 -8
20 3 27 2 22 -6 -4 -8 3 -8 26 -1 41 11 51 11 44 0 -7 -11 121 -2 149 11 13 5
-5 7 -50 4 -45 -3 -61 -2 -45 4 25 8 25 8 -5 10 -88 5 -185 4 -185 -3z"/>
<path d="M4115 8312 c17 -8 17 -9 -9 -16 -16 -4 -27 -9 -24 -11 2 -2 24 2 48
10 25 7 38 14 30 14 -8 1 -26 4 -40 6 -20 4 -21 4 -5 -3z"/>
<path d="M4193 8313 c9 -2 25 -2 35 0 9 3 1 5 -18 5 -19 0 -27 -2 -17 -5z"/>
<path d="M4865 8300 c-3 -6 1 -7 9 -4 18 7 21 14 7 14 -6 0 -13 -4 -16 -10z"/>
<path d="M4436 8291 c-3 -5 5 -12 18 -15 13 -3 32 -9 43 -12 10 -3 5 3 -12 15
-33 23 -41 25 -49 12z"/>
<path d="M4005 8280 c-3 -6 1 -7 9 -4 18 7 21 14 7 14 -6 0 -13 -4 -16 -10z"/>
<path d="M4173 8283 c9 -2 23 -2 30 0 6 3 -1 5 -18 5 -16 0 -22 -2 -12 -5z"/>
<path d="M4701 8273 c-29 -21 -3 -25 36 -5 37 20 37 20 9 19 -16 -1 -36 -7
-45 -14z"/>
<path d="M3869 8253 c-13 -16 -12 -17 4 -4 9 7 17 15 17 17 0 8 -8 3 -21 -13z"/>
<path d="M4808 8164 c-90 -76 -201 -107 -299 -84 -28 7 -80 32 -115 56 -71 48
-93 53 -117 26 -25 -27 -21 -54 16 -108 119 -180 417 -191 574 -22 22 23 53
87 53 108 0 13 -46 60 -59 60 -5 0 -29 -16 -53 -36z"/>
<path d="M6715 8964 c37 -29 150 -92 175 -98 23 -6 24 -5 6 6 -11 7 -29 22
-40 34 -25 25 -86 58 -93 50 -3 -3 -15 1 -27 9 -27 20 -47 19 -21 -1z"/>
<path d="M6327 8043 c-18 -31 -42 -132 -48 -203 -7 -76 -7 -73 -3 30 2 63 7
126 10 140 5 22 4 23 -6 7 -7 -11 -16 -68 -21 -129 -9 -105 -9 -112 14 -161
13 -29 34 -63 46 -77 22 -24 22 -24 -1 20 -23 43 -24 50 -17 165 4 68 14 139
23 164 14 39 16 67 3 44z"/>
<path d="M2108 7424 c-16 -8 -28 -19 -28 -24 0 -6 -10 -10 -22 -10 -14 0 -19
-3 -12 -10 12 -12 82 4 102 23 8 8 11 20 8 26 -9 14 -15 13 -48 -5z"/>
<path d="M1788 7274 c-15 -8 -32 -23 -38 -34 -6 -11 -21 -21 -33 -21 -17 -1
-18 -2 -4 -6 37 -10 145 46 132 68 -8 13 -25 11 -57 -7z"/>
<path d="M4440 6506 c-144 -61 -206 -93 -288 -149 -62 -41 -45 -45 19 -4 72
46 194 106 315 157 90 37 134 62 109 59 -6 0 -75 -29 -155 -63z"/>
<path d="M4558 6515 c-138 -38 -271 -99 -356 -163 -48 -36 -32 -38 21 -2 76
51 225 117 342 151 61 17 112 33 114 35 11 10 -42 0 -121 -21z"/>
<path d="M4660 6500 c-126 -22 -262 -69 -347 -118 -34 -20 -61 -37 -59 -39 2
-2 45 17 97 41 106 51 228 89 348 107 44 7 81 16 81 21 0 10 9 11 -120 -12z"/>
<path d="M4745 6484 c-111 -17 -234 -49 -297 -76 -69 -30 -54 -31 24 -3 67 24
306 75 356 75 15 0 34 5 42 10 21 13 -11 12 -125 -6z"/>
<path d="M2128 5918 c-93 -106 -133 -158 -157 -205 -32 -65 -25 -64 14 2 20
32 55 82 78 109 24 28 64 77 91 109 69 82 50 71 -26 -15z"/>
<path d="M4953 5541 c-49 -31 -110 -115 -169 -236 -46 -94 -55 -106 -61 -86
-17 64 -105 223 -144 260 -38 38 -112 72 -125 58 -3 -3 8 -26 26 -51 37 -51
60 -135 60 -222 0 -77 -14 -118 -46 -133 -49 -22 -135 -6 -154 29 -15 29 -11
89 10 150 10 30 17 57 15 59 -8 8 -47 -45 -76 -104 -42 -87 -40 -136 9 -185
59 -60 184 -77 249 -35 33 22 45 57 52 153 l6 84 33 -59 c19 -32 49 -93 67
-137 34 -82 38 -84 50 -26 9 46 67 167 98 205 l25 29 7 -54 c4 -30 13 -69 20
-87 29 -69 165 -98 236 -50 91 61 68 217 -44 292 -52 36 -61 31 -28 -16 58
-79 50 -185 -15 -217 -85 -40 -126 37 -105 197 6 47 22 107 36 138 14 31 25
57 25 59 0 10 -28 2 -57 -15z"/>
<path d="M4440 4779 c0 -5 5 -7 10 -4 6 3 10 8 10 11 0 2 -4 4 -10 4 -5 0 -10
-5 -10 -11z"/>
<path d="M6531 3974 c0 -11 3 -14 6 -6 3 7 2 16 -1 19 -3 4 -6 -2 -5 -13z"/>
<path d="M3811 4233 c-49 -207 -75 -472 -60 -628 9 -97 55 -330 71 -355 7 -12
8 -10 4 5 -3 11 -18 83 -32 160 -44 229 -37 507 22 784 13 63 22 116 20 118
-2 2 -13 -36 -25 -84z"/>
<path d="M5403 3515 c0 -33 2 -45 4 -27 2 18 2 45 0 60 -2 15 -4 0 -4 -33z"/>
<path d="M5392 3395 c0 -16 2 -22 5 -12 2 9 2 23 0 30 -3 6 -5 -1 -5 -18z"/>
<path d="M4291 3330 c-1 -42 53 -332 103 -555 48 -215 54 -234 79 -259 33 -32
348 -141 331 -115 -3 5 -15 9 -26 9 -32 0 -275 100 -293 120 -29 32 -113 380
-170 700 -13 74 -24 119 -24 100z"/>
<path d="M3892 2785 c0 -16 2 -22 5 -12 2 9 2 23 0 30 -3 6 -5 -1 -5 -18z"/>
<path d="M3901 2728 c-2 -28 29 -241 40 -275 8 -25 18 -35 47 -43 56 -15 84
-10 32 6 -24 8 -50 20 -58 27 -7 8 -22 72 -33 143 -22 146 -26 167 -28 142z"/>
<path d="M6927 1309 c-22 -11 -37 -23 -34 -25 6 -7 77 28 77 38 0 10 2 11 -43
-13z"/>
<path d="M7015 1262 c-71 -32 -177 -84 -235 -116 -111 -62 -260 -155 -248
-156 4 0 31 15 60 34 76 48 267 148 424 221 75 35 139 66 142 69 14 15 -24 1
-143 -52z"/>
<path d="M6758 1224 c-27 -13 -48 -27 -48 -29 0 -5 99 42 109 51 13 11 -20 0
-61 -22z"/>
<path d="M7205 1040 c-17 -7 -15 -9 10 -8 17 0 41 4 55 8 23 7 22 8 -10 8 -19
0 -44 -3 -55 -8z"/>
<path d="M7196 994 c-43 -8 -85 -19 -95 -25 -13 -8 -11 -9 9 -4 14 3 60 11
103 17 42 7 77 16 77 20 0 9 5 10 -94 -8z"/>
<path d="M6945 908 c-44 -32 -104 -89 -128 -123 -11 -16 6 -3 39 31 32 33 75
72 94 87 42 31 38 35 -5 5z"/>
<path d="M6777 859 c-41 -47 -94 -129 -84 -129 3 0 20 24 38 53 19 28 49 69
68 90 18 20 31 37 28 37 -3 0 -25 -23 -50 -51z"/>
<path d="M6830 858 c-23 -28 -48 -65 -56 -82 -8 -17 -9 -22 -2 -12 7 11 35 48
61 83 57 76 55 85 -3 11z"/>
<path d="M6688 813 c-18 -21 -31 -43 -25 -43 2 0 13 14 25 30 25 33 24 41 0
13z"/>
<path d="M1950 1100 c91 -4 181 -12 200 -17 19 -6 113 -40 208 -77 94 -36 185
-66 202 -66 41 0 183 31 195 43 7 6 1 8 -15 4 -14 -3 -63 -13 -110 -22 l-85
-17 -195 78 -195 78 -185 2 -185 2 165 -8z"/>
<path d="M1743 1093 c9 -2 23 -2 30 0 6 3 -1 5 -18 5 -16 0 -22 -2 -12 -5z"/>
<path d="M2603 1093 c-89 -3 -133 -7 -133 -15 0 -14 253 -5 290 10 l25 11 -25
-2 c-14 -1 -85 -3 -157 -4z"/>
<path d="M2120 1010 c8 -5 20 -10 25 -10 6 0 3 5 -5 10 -8 5 -19 10 -25 10 -5
0 -3 -5 5 -10z"/>
<path d="M1653 903 c15 -2 37 -2 50 0 12 2 0 4 -28 4 -27 0 -38 -2 -22 -4z"/>
<path d="M1793 903 c15 -2 37 -2 50 0 12 2 0 4 -28 4 -27 0 -38 -2 -22 -4z"/>
<path d="M2136 863 c91 -81 146 -124 135 -105 -12 22 -72 73 -131 111 l-35 23
31 -29z"/>
<path d="M2060 840 c36 -17 86 -52 113 -78 26 -25 47 -42 47 -36 0 17 -83 91
-125 112 -22 10 -53 22 -70 26 -16 3 -1 -8 35 -24z"/>
<path d="M2270 815 c44 -45 50 -50 50 -40 0 11 -73 85 -83 85 -6 0 9 -20 33
-45z"/>
</g>
</svg>
